<?xml version="1.0" encoding="UTF-8" standalone="no"?>
<!-- Generator: Adobe Illustrator 24.3.0, SVG Export Plug-In . SVG Version: 6.00 Build 0)  -->

<svg
   version="1.1"
   x="0px"
   y="0px"
   viewBox="0 0 517.6 157.71"
   style="enable-background:new 0 0 517.6 157.71;"
   xml:space="preserve"
   id="svg66"
   sodipodi:docname="JeuxRedigeBe_logo_h_white_misc.svg"
   inkscape:version="1.1.1 (3bf5ae0d25, 2021-09-20)"
   xmlns:inkscape="http://www.inkscape.org/namespaces/inkscape"
   xmlns:sodipodi="http://sodipodi.sourceforge.net/DTD/sodipodi-0.dtd"
   xmlns="http://www.w3.org/2000/svg"
   xmlns:svg="http://www.w3.org/2000/svg"><defs
   id="defs70" /><sodipodi:namedview
   id="namedview68"
   pagecolor="#ffffff"
   bordercolor="#666666"
   borderopacity="1.0"
   inkscape:pageshadow="2"
   inkscape:pageopacity="0.0"
   inkscape:pagecheckerboard="0"
   showgrid="false"
   inkscape:zoom="4.130603"
   inkscape:cx="411.68323"
   inkscape:cy="135.93657"
   inkscape:window-width="1920"
   inkscape:window-height="1017"
   inkscape:window-x="-8"
   inkscape:window-y="-8"
   inkscape:window-maximized="1"
   inkscape:current-layer="svg66"
   inkscape:snap-text-baseline="false" />
<style
   type="text/css"
   id="style2">
	.st0{display:none;}
	.st1{display:inline;fill:none;stroke:#1D1D1B;stroke-width:0.25;stroke-miterlimit:10;}
	.st2{display:inline;opacity:0.4;}
	.st3{fill:#FFFFFF;}
	.st4{fill:#99368B;}
</style>
<g
   id="Calque_1"
   class="st0">
	<line
   class="st1"
   x1="517.9"
   y1="34.29"
   x2="0.07"
   y2="34.29"
   id="line4" />
	<line
   class="st1"
   x1="517.9"
   y1="114.14"
   x2="0.07"
   y2="114.14"
   id="line6" />
	<line
   class="st1"
   x1="517.9"
   y1="123.61"
   x2="0.07"
   y2="123.61"
   id="line8" />
	<line
   class="st1"
   x1="517.9"
   y1="157.83"
   x2="0.07"
   y2="157.83"
   id="line10" />
	<line
   class="st1"
   x1="517.9"
   y1="0.08"
   x2="0.07"
   y2="0.08"
   id="line12" />
	<line
   class="st1"
   x1="483.86"
   y1="0.2"
   x2="483.86"
   y2="157.52"
   id="line14" />
	<line
   class="st1"
   x1="34.2"
   y1="0.46"
   x2="34.2"
   y2="157.79"
   id="line16" />
	<line
   class="st1"
   x1="-0.02"
   y1="0.46"
   x2="-0.02"
   y2="157.79"
   id="line18" />
	<line
   class="st1"
   x1="518.08"
   y1="0.2"
   x2="518.08"
   y2="157.52"
   id="line20" />
	<polygon
   class="st2"
   points="12.52,102.05 12.52,78.5 29.81,78.5 29.81,66.41 12.52,66.41 12.52,46.38 21.23,46.38 21.23,34.29    21.23,34.29 0.5,34.29 -0.02,34.29 -0.02,114.14 8.9,114.14 34.2,114.14 34.2,102.73 34.2,102.05  "
   id="polygon22" />
	<polygon
   class="st2"
   points="496.41,102.05 496.41,78.5 513.7,78.5 513.7,66.41 496.41,66.41 496.41,46.38 505.12,46.38    505.12,34.29 505.12,34.29 484.38,34.29 483.86,34.29 483.86,114.14 492.79,114.14 518.08,114.14 518.08,102.73 518.08,102.05  "
   id="polygon24" />
	<polygon
   class="st2"
   points="183.53,21.75 159.98,21.75 159.98,4.46 147.89,4.46 147.89,21.75 127.87,21.75 127.87,13.04    115.78,13.04 115.78,13.04 115.78,33.77 115.78,34.29 195.62,34.29 195.62,25.37 195.62,0.08 184.22,0.08 183.53,0.08  "
   id="polygon26" />
	<polygon
   class="st2"
   points="127.87,136.16 151.42,136.16 151.42,153.45 163.51,153.45 163.51,136.16 183.53,136.16 183.53,144.87    195.62,144.87 195.62,144.87 195.62,124.14 195.62,123.61 115.78,123.61 115.78,132.54 115.78,157.83 127.19,157.83 127.87,157.83     "
   id="polygon28" />
</g>
<g
   id="Calque_2">
	<g
   id="g63">
		<path
   class="st3"
   d="M 398.23,93.95 V 54.4 c 0,-12.77 6.39,-20.07 18.71,-20.07 12.32,0 18.71,7.3 18.71,20.07 v 6.84 H 423.79 V 53.6 c 0,-5.7 -2.51,-7.87 -6.5,-7.87 -3.99,0 -6.5,2.17 -6.5,7.87 v 41.27 c 0,5.7 2.51,7.76 6.5,7.76 3.99,0 6.5,-2.05 6.5,-7.76 v -14.4 h -6.27 v -11.4 h 18.13 v 24.89 c 0,12.78 -6.39,20.08 -18.71,20.08 -12.32,-0.01 -18.71,-7.31 -18.71,-20.09 z"
   id="path31" />
		<path
   class="st4"
   d="m 385.29,31.09 6.4,0.79 c 1.67,0.21 2.81,2.11 2.55,4.25 v 0 L 381.79,34.6 v 0 c 0.26,-2.15 1.83,-3.71 3.5,-3.51 z"
   id="path33"
   style="fill:#c8c8c8;fill-opacity:1" />
		<polygon
   class="st3"
   points="372.7,107.91 385.16,109.44 393.73,39.11 381.27,37.58 "
   id="polygon35" />
		<polygon
   class="st4"
   points="384.58,114.1 377.11,123.61 372.16,112.57 "
   id="polygon37"
   style="fill:#c8c8c8;fill-opacity:1" />
		<path
   class="st3"
   d="M 127.06,93.96 V 53.22 h 12.55 v 41.65 c 0,5.7 2.4,7.76 6.39,7.76 3.99,0 6.39,-2.05 6.39,-7.76 V 34.29 h 12.09 v 59.67 c 0,12.78 -6.39,20.08 -18.71,20.08 -12.32,0 -18.71,-7.3 -18.71,-20.08 z"
   id="path39" />
		<polygon
   class="st4"
   points="127.06,44.67 133.34,34.29 139.61,44.67 "
   id="polygon41"
   style="fill:#c8c8c8;fill-opacity:1" />
		<polygon
   class="st4"
   points="44.57,114.14 34.2,107.86 44.57,101.59 "
   id="polygon43"
   style="fill:#c8c8c8;fill-opacity:1" />
		<polygon
   class="st4"
   points="473.53,34.04 483.91,40.31 473.53,46.58 "
   id="polygon45"
   style="fill:#cccccc;fill-opacity:1" />
		<path
   class="st3"
   d="m 268.32,89.71 v 14.6 c 0,0.45 0,0.87 0.01,1.28 h 12.54 c 0,-0.38 -0.01,-0.76 -0.01,-1.16 V 90.4 c 0,-9.01 -2.05,-14.94 -8.33,-16.88 v -0.23 c 5.59,-2.28 8.21,-7.53 8.21,-15.74 v -4.9 c 0,-12.32 -5.59,-18.36 -18.59,-18.36 h -18.59 v 79.84 h 12.55 V 79.9 h 4.33 c 5.72,0 7.88,2.4 7.88,9.81 z M 256.12,68.5 V 45.69 h 5.7 c 4.45,0 6.39,2.51 6.39,8.21 v 6.16 c 0,6.39 -2.85,8.44 -7.53,8.44 z"
   id="path47" />
		<polygon
   class="st3"
   points="473.58,66.39 456.29,66.39 456.29,46.37 465,46.37 465,34.28 465,34.28 444.26,34.28 443.74,34.28 443.74,114.12 452.67,114.12 477.96,114.12 477.96,102.72 477.96,102.03 456.29,102.03 456.29,78.48 473.58,78.48 "
   id="polygon49" />
		<polygon
   class="st3"
   points="319.37,66.39 302.08,66.39 302.08,46.37 310.79,46.37 310.79,34.28 310.79,34.28 290.06,34.28 289.54,34.28 289.54,114.12 298.46,114.12 323.76,114.12 323.76,102.72 323.76,102.03 302.08,102.03 302.08,78.48 319.37,78.48 "
   id="polygon51" />
		<polygon
   class="st3"
   points="116.32,66.41 99.04,66.41 99.04,46.38 107.74,46.38 107.74,34.29 107.74,34.29 87.01,34.29 86.49,34.29 86.49,114.14 95.42,114.14 120.71,114.14 120.71,102.73 120.71,102.05 99.04,102.05 99.04,78.5 116.32,78.5 "
   id="polygon53" />
		<path
   class="st3"
   d="M 77.11,47.6 V 34.3 H 64.56 c 0,0 0,8.78 0,13.3 z"
   id="path55" />
		<path
   class="st3"
   d="M 77.11,56.17 H 64.56 c 0,18.08 0,38.92 0,38.92 0,0.13 0,0.26 0,0.39 -0.08,3.34 -2.77,6.03 -6.11,6.11 -0.13,0 -0.26,0 -0.39,0 h -5.01 v 0.69 c 0,0 0,0 -0.01,0 v 11.41 c 0,0 0,0 0.01,0 v 0.45 h 4.67 c 0.13,0 0.25,-0.01 0.37,-0.01 0.26,0 0.5,0.01 0.77,0.01 5.88,0 10.28,-1.45 13.3,-4.36 0.1,-0.09 0.2,-0.19 0.3,-0.28 0.1,-0.1 0.19,-0.2 0.28,-0.3 2.92,-3.02 4.36,-7.43 4.36,-13.3 0,-0.27 -0.01,-0.51 -0.01,-0.77 0,-0.13 0.01,-0.24 0.01,-0.37 V 56.17 Z"
   id="path57" />
		<path
   class="st3"
   d="m 368.81,52.53 c 0,-5.88 -1.45,-10.28 -4.36,-13.3 -0.09,-0.1 -0.19,-0.2 -0.28,-0.3 -0.1,-0.1 -0.2,-0.19 -0.3,-0.28 -3.02,-2.92 -7.43,-4.36 -13.3,-4.36 -0.27,0 -0.51,0.01 -0.77,0.01 -0.13,0 -0.24,-0.01 -0.37,-0.01 h -18.48 v 12.55 h 18.82 c 0.13,0 0.26,0 0.39,0 3.34,0.08 6.03,2.77 6.11,6.11 0,0.13 0,0.26 0,0.39 0,0 0,0.85 0,2.33 0,14.5 0,31.08 0,37.09 0,1.48 0,2.33 0,2.33 0,0.13 0,0.26 0,0.39 -0.08,3.34 -2.77,6.03 -6.11,6.11 -0.13,0 -0.26,0 -0.39,0 H 343.5 V 55.34 h -12.55 v 46.23 5.17 7.38 h 18.48 c 0.13,0 0.25,-0.01 0.37,-0.01 0.26,0 0.5,0.01 0.77,0.01 5.88,0 10.28,-1.45 13.3,-4.36 0.1,-0.09 0.2,-0.19 0.3,-0.28 0.1,-0.1 0.19,-0.2 0.28,-0.3 2.92,-3.02 4.36,-7.43 4.36,-13.3 0,-0.27 -0.01,-0.51 -0.01,-0.77 0,-0.13 0.01,-0.24 0.01,-0.37 V 92.75 55.66 53.67 c 0,-0.13 -0.01,-0.25 -0.01,-0.37 0,-0.26 0.01,-0.5 0.01,-0.77 z"
   id="path59" />
		<polygon
   class="st3"
   points="192.19,60.07 183.75,34.29 170.52,34.29 184.32,73.3 169.84,114.14 181.7,114.14 191.05,86.3 191.28,86.3 200.4,114.14 213.63,114.14 199.15,73.3 209.93,42.83 198.22,42.83 192.42,60.07 "
   id="polygon61" />
	</g>
</g>
<text
   xml:space="preserve"
   style="font-size:13.3333px;line-height:1.25;font-family:Roboto;-inkscape-font-specification:Roboto;fill:#c8c8c8;fill-opacity:1"
   x="391.71036"
   y="133.87877"
   id="text8784"><tspan
     sodipodi:role="line"
     id="tspan8782"
     x="391.71036"
     y="133.87877"
     style="font-size:13.3333px;fill:#c8c8c8;fill-opacity:1">HORS JEU</tspan></text></svg>
